<mxfile host="Electron" modified="2023-09-25T07:05:16.516Z" agent="Mozilla/5.0 (Windows NT 10.0; Win64; x64) AppleWebKit/537.36 (KHTML, like Gecko) draw.io/21.6.8 Chrome/114.0.5735.289 Electron/25.5.0 Safari/537.36" etag="_QmBx2Hh11_UxvwM8MN0" version="21.6.8" type="device">
  <diagram name="Page-1" id="A5oXOGVkicalM7KtBWvu">
    <mxGraphModel dx="1036" dy="623" grid="1" gridSize="10" guides="1" tooltips="1" connect="1" arrows="1" fold="1" page="1" pageScale="1" pageWidth="850" pageHeight="1100" math="0" shadow="0">
      <root>
        <mxCell id="0" />
        <mxCell id="1" parent="0" />
        <mxCell id="T4NLXl1WJD7Kk45LQPnZ-1" value="Users" style="shape=umlActor;verticalLabelPosition=bottom;verticalAlign=top;html=1;outlineConnect=0;" vertex="1" parent="1">
          <mxGeometry x="185" y="100" width="30" height="60" as="geometry" />
        </mxCell>
        <mxCell id="T4NLXl1WJD7Kk45LQPnZ-2" value="Update:profile" style="rounded=0;whiteSpace=wrap;html=1;" vertex="1" parent="1">
          <mxGeometry x="370" y="105" width="120" height="50" as="geometry" />
        </mxCell>
        <mxCell id="T4NLXl1WJD7Kk45LQPnZ-4" value="Database" style="rounded=0;whiteSpace=wrap;html=1;" vertex="1" parent="1">
          <mxGeometry x="620" y="105" width="120" height="50" as="geometry" />
        </mxCell>
        <mxCell id="T4NLXl1WJD7Kk45LQPnZ-5" value="" style="endArrow=none;dashed=1;html=1;dashPattern=1 3;strokeWidth=2;rounded=0;entryX=0.5;entryY=0.5;entryDx=0;entryDy=0;entryPerimeter=0;" edge="1" parent="1" source="T4NLXl1WJD7Kk45LQPnZ-9" target="T4NLXl1WJD7Kk45LQPnZ-1">
          <mxGeometry width="50" height="50" relative="1" as="geometry">
            <mxPoint x="200" y="520" as="sourcePoint" />
            <mxPoint x="240" y="230" as="targetPoint" />
          </mxGeometry>
        </mxCell>
        <mxCell id="T4NLXl1WJD7Kk45LQPnZ-6" value="" style="endArrow=none;dashed=1;html=1;dashPattern=1 3;strokeWidth=2;rounded=0;entryX=0.5;entryY=1;entryDx=0;entryDy=0;" edge="1" parent="1" source="T4NLXl1WJD7Kk45LQPnZ-29" target="T4NLXl1WJD7Kk45LQPnZ-2">
          <mxGeometry width="50" height="50" relative="1" as="geometry">
            <mxPoint x="430" y="540" as="sourcePoint" />
            <mxPoint x="510" y="250" as="targetPoint" />
          </mxGeometry>
        </mxCell>
        <mxCell id="T4NLXl1WJD7Kk45LQPnZ-7" value="" style="endArrow=none;dashed=1;html=1;dashPattern=1 3;strokeWidth=2;rounded=0;entryX=0.5;entryY=1;entryDx=0;entryDy=0;" edge="1" parent="1" source="T4NLXl1WJD7Kk45LQPnZ-31" target="T4NLXl1WJD7Kk45LQPnZ-4">
          <mxGeometry width="50" height="50" relative="1" as="geometry">
            <mxPoint x="680" y="540" as="sourcePoint" />
            <mxPoint x="690" y="270" as="targetPoint" />
          </mxGeometry>
        </mxCell>
        <mxCell id="T4NLXl1WJD7Kk45LQPnZ-8" value="" style="endArrow=none;dashed=1;html=1;dashPattern=1 3;strokeWidth=2;rounded=0;entryX=0.5;entryY=0.5;entryDx=0;entryDy=0;entryPerimeter=0;" edge="1" parent="1" source="T4NLXl1WJD7Kk45LQPnZ-18" target="T4NLXl1WJD7Kk45LQPnZ-9">
          <mxGeometry width="50" height="50" relative="1" as="geometry">
            <mxPoint x="200" y="520" as="sourcePoint" />
            <mxPoint x="200" y="130" as="targetPoint" />
          </mxGeometry>
        </mxCell>
        <mxCell id="T4NLXl1WJD7Kk45LQPnZ-13" style="edgeStyle=elbowEdgeStyle;rounded=0;orthogonalLoop=1;jettySize=auto;html=1;elbow=vertical;curved=0;" edge="1" parent="1" source="T4NLXl1WJD7Kk45LQPnZ-9" target="T4NLXl1WJD7Kk45LQPnZ-10">
          <mxGeometry relative="1" as="geometry" />
        </mxCell>
        <mxCell id="T4NLXl1WJD7Kk45LQPnZ-9" value="" style="html=1;points=[];perimeter=orthogonalPerimeter;outlineConnect=0;targetShapes=umlLifeline;portConstraint=eastwest;newEdgeStyle={&quot;edgeStyle&quot;:&quot;elbowEdgeStyle&quot;,&quot;elbow&quot;:&quot;vertical&quot;,&quot;curved&quot;:0,&quot;rounded&quot;:0};" vertex="1" parent="1">
          <mxGeometry x="195" y="217" width="10" height="80" as="geometry" />
        </mxCell>
        <mxCell id="T4NLXl1WJD7Kk45LQPnZ-15" style="edgeStyle=elbowEdgeStyle;rounded=0;orthogonalLoop=1;jettySize=auto;html=1;elbow=vertical;curved=0;" edge="1" parent="1">
          <mxGeometry relative="1" as="geometry">
            <mxPoint x="425" y="289" as="sourcePoint" />
            <mxPoint x="205" y="289" as="targetPoint" />
          </mxGeometry>
        </mxCell>
        <mxCell id="T4NLXl1WJD7Kk45LQPnZ-10" value="" style="html=1;points=[];perimeter=orthogonalPerimeter;outlineConnect=0;targetShapes=umlLifeline;portConstraint=eastwest;newEdgeStyle={&quot;edgeStyle&quot;:&quot;elbowEdgeStyle&quot;,&quot;elbow&quot;:&quot;vertical&quot;,&quot;curved&quot;:0,&quot;rounded&quot;:0};" vertex="1" parent="1">
          <mxGeometry x="425" y="216" width="10" height="80" as="geometry" />
        </mxCell>
        <mxCell id="T4NLXl1WJD7Kk45LQPnZ-14" value="Request Update Profile()" style="text;html=1;align=center;verticalAlign=middle;resizable=0;points=[];autosize=1;strokeColor=none;fillColor=none;" vertex="1" parent="1">
          <mxGeometry x="210" y="218" width="160" height="30" as="geometry" />
        </mxCell>
        <mxCell id="T4NLXl1WJD7Kk45LQPnZ-16" value="display update form()" style="text;html=1;align=center;verticalAlign=middle;resizable=0;points=[];autosize=1;strokeColor=none;fillColor=none;" vertex="1" parent="1">
          <mxGeometry x="233" y="261" width="140" height="30" as="geometry" />
        </mxCell>
        <mxCell id="T4NLXl1WJD7Kk45LQPnZ-17" value="" style="endArrow=none;dashed=1;html=1;dashPattern=1 3;strokeWidth=2;rounded=0;entryX=0.5;entryY=0.5;entryDx=0;entryDy=0;entryPerimeter=0;" edge="1" parent="1" source="T4NLXl1WJD7Kk45LQPnZ-27" target="T4NLXl1WJD7Kk45LQPnZ-18">
          <mxGeometry width="50" height="50" relative="1" as="geometry">
            <mxPoint x="200" y="520" as="sourcePoint" />
            <mxPoint x="200" y="257" as="targetPoint" />
          </mxGeometry>
        </mxCell>
        <mxCell id="T4NLXl1WJD7Kk45LQPnZ-21" style="edgeStyle=elbowEdgeStyle;rounded=0;orthogonalLoop=1;jettySize=auto;html=1;elbow=vertical;curved=0;" edge="1" parent="1">
          <mxGeometry relative="1" as="geometry">
            <mxPoint x="205" y="361" as="sourcePoint" />
            <mxPoint x="424" y="361" as="targetPoint" />
          </mxGeometry>
        </mxCell>
        <mxCell id="T4NLXl1WJD7Kk45LQPnZ-18" value="" style="html=1;points=[];perimeter=orthogonalPerimeter;outlineConnect=0;targetShapes=umlLifeline;portConstraint=eastwest;newEdgeStyle={&quot;edgeStyle&quot;:&quot;elbowEdgeStyle&quot;,&quot;elbow&quot;:&quot;vertical&quot;,&quot;curved&quot;:0,&quot;rounded&quot;:0};" vertex="1" parent="1">
          <mxGeometry x="195" y="340" width="10" height="50" as="geometry" />
        </mxCell>
        <mxCell id="T4NLXl1WJD7Kk45LQPnZ-24" style="edgeStyle=elbowEdgeStyle;rounded=0;orthogonalLoop=1;jettySize=auto;html=1;elbow=vertical;curved=0;" edge="1" parent="1" source="T4NLXl1WJD7Kk45LQPnZ-20" target="T4NLXl1WJD7Kk45LQPnZ-23">
          <mxGeometry relative="1" as="geometry" />
        </mxCell>
        <mxCell id="T4NLXl1WJD7Kk45LQPnZ-20" value="" style="html=1;points=[];perimeter=orthogonalPerimeter;outlineConnect=0;targetShapes=umlLifeline;portConstraint=eastwest;newEdgeStyle={&quot;edgeStyle&quot;:&quot;elbowEdgeStyle&quot;,&quot;elbow&quot;:&quot;vertical&quot;,&quot;curved&quot;:0,&quot;rounded&quot;:0};" vertex="1" parent="1">
          <mxGeometry x="424" y="342" width="10" height="58" as="geometry" />
        </mxCell>
        <mxCell id="T4NLXl1WJD7Kk45LQPnZ-22" value="inpute update information()" style="text;html=1;align=center;verticalAlign=middle;resizable=0;points=[];autosize=1;strokeColor=none;fillColor=none;" vertex="1" parent="1">
          <mxGeometry x="233" y="330" width="170" height="30" as="geometry" />
        </mxCell>
        <mxCell id="T4NLXl1WJD7Kk45LQPnZ-23" value="" style="html=1;points=[];perimeter=orthogonalPerimeter;outlineConnect=0;targetShapes=umlLifeline;portConstraint=eastwest;newEdgeStyle={&quot;edgeStyle&quot;:&quot;elbowEdgeStyle&quot;,&quot;elbow&quot;:&quot;vertical&quot;,&quot;curved&quot;:0,&quot;rounded&quot;:0};" vertex="1" parent="1">
          <mxGeometry x="675" y="350" width="10" height="50" as="geometry" />
        </mxCell>
        <mxCell id="T4NLXl1WJD7Kk45LQPnZ-25" value="Request store new information()" style="text;html=1;align=center;verticalAlign=middle;resizable=0;points=[];autosize=1;strokeColor=none;fillColor=none;" vertex="1" parent="1">
          <mxGeometry x="460" y="350" width="190" height="30" as="geometry" />
        </mxCell>
        <mxCell id="T4NLXl1WJD7Kk45LQPnZ-26" value="" style="endArrow=none;dashed=1;html=1;dashPattern=1 3;strokeWidth=2;rounded=0;entryX=0.5;entryY=0.5;entryDx=0;entryDy=0;entryPerimeter=0;" edge="1" parent="1" target="T4NLXl1WJD7Kk45LQPnZ-27">
          <mxGeometry width="50" height="50" relative="1" as="geometry">
            <mxPoint x="200" y="520" as="sourcePoint" />
            <mxPoint x="200" y="365" as="targetPoint" />
          </mxGeometry>
        </mxCell>
        <mxCell id="T4NLXl1WJD7Kk45LQPnZ-27" value="" style="html=1;points=[];perimeter=orthogonalPerimeter;outlineConnect=0;targetShapes=umlLifeline;portConstraint=eastwest;newEdgeStyle={&quot;edgeStyle&quot;:&quot;elbowEdgeStyle&quot;,&quot;elbow&quot;:&quot;vertical&quot;,&quot;curved&quot;:0,&quot;rounded&quot;:0};" vertex="1" parent="1">
          <mxGeometry x="195" y="420" width="10" height="80" as="geometry" />
        </mxCell>
        <mxCell id="T4NLXl1WJD7Kk45LQPnZ-28" value="" style="endArrow=none;dashed=1;html=1;dashPattern=1 3;strokeWidth=2;rounded=0;entryX=0.5;entryY=1;entryDx=0;entryDy=0;" edge="1" parent="1" target="T4NLXl1WJD7Kk45LQPnZ-29">
          <mxGeometry width="50" height="50" relative="1" as="geometry">
            <mxPoint x="430" y="540" as="sourcePoint" />
            <mxPoint x="430" y="155" as="targetPoint" />
          </mxGeometry>
        </mxCell>
        <mxCell id="T4NLXl1WJD7Kk45LQPnZ-34" style="edgeStyle=elbowEdgeStyle;rounded=0;orthogonalLoop=1;jettySize=auto;html=1;elbow=vertical;curved=0;dashed=1;" edge="1" parent="1">
          <mxGeometry relative="1" as="geometry">
            <mxPoint x="426" y="485" as="sourcePoint" />
            <mxPoint x="205" y="485" as="targetPoint" />
          </mxGeometry>
        </mxCell>
        <mxCell id="T4NLXl1WJD7Kk45LQPnZ-29" value="" style="html=1;points=[];perimeter=orthogonalPerimeter;outlineConnect=0;targetShapes=umlLifeline;portConstraint=eastwest;newEdgeStyle={&quot;edgeStyle&quot;:&quot;elbowEdgeStyle&quot;,&quot;elbow&quot;:&quot;vertical&quot;,&quot;curved&quot;:0,&quot;rounded&quot;:0};" vertex="1" parent="1">
          <mxGeometry x="426" y="420" width="10" height="80" as="geometry" />
        </mxCell>
        <mxCell id="T4NLXl1WJD7Kk45LQPnZ-30" value="" style="endArrow=none;dashed=1;html=1;dashPattern=1 3;strokeWidth=2;rounded=0;entryX=0.5;entryY=1;entryDx=0;entryDy=0;" edge="1" parent="1" target="T4NLXl1WJD7Kk45LQPnZ-31">
          <mxGeometry width="50" height="50" relative="1" as="geometry">
            <mxPoint x="680" y="540" as="sourcePoint" />
            <mxPoint x="680" y="155" as="targetPoint" />
          </mxGeometry>
        </mxCell>
        <mxCell id="T4NLXl1WJD7Kk45LQPnZ-32" style="edgeStyle=elbowEdgeStyle;rounded=0;orthogonalLoop=1;jettySize=auto;html=1;elbow=vertical;curved=0;dashed=1;" edge="1" parent="1" source="T4NLXl1WJD7Kk45LQPnZ-31" target="T4NLXl1WJD7Kk45LQPnZ-29">
          <mxGeometry relative="1" as="geometry" />
        </mxCell>
        <mxCell id="T4NLXl1WJD7Kk45LQPnZ-31" value="" style="html=1;points=[];perimeter=orthogonalPerimeter;outlineConnect=0;targetShapes=umlLifeline;portConstraint=eastwest;newEdgeStyle={&quot;edgeStyle&quot;:&quot;elbowEdgeStyle&quot;,&quot;elbow&quot;:&quot;vertical&quot;,&quot;curved&quot;:0,&quot;rounded&quot;:0};" vertex="1" parent="1">
          <mxGeometry x="675" y="420" width="10" height="80" as="geometry" />
        </mxCell>
        <mxCell id="T4NLXl1WJD7Kk45LQPnZ-33" value="new information store success()" style="text;html=1;align=center;verticalAlign=middle;resizable=0;points=[];autosize=1;strokeColor=none;fillColor=none;" vertex="1" parent="1">
          <mxGeometry x="445" y="428" width="190" height="30" as="geometry" />
        </mxCell>
        <mxCell id="T4NLXl1WJD7Kk45LQPnZ-35" value="Display Profile Update Successful()" style="text;html=1;align=center;verticalAlign=middle;resizable=0;points=[];autosize=1;strokeColor=none;fillColor=none;" vertex="1" parent="1">
          <mxGeometry x="210" y="450" width="210" height="30" as="geometry" />
        </mxCell>
        <mxCell id="T4NLXl1WJD7Kk45LQPnZ-36" value="" style="swimlane;startSize=0;" vertex="1" parent="1">
          <mxGeometry x="130" y="61" width="650" height="549" as="geometry" />
        </mxCell>
        <mxCell id="T4NLXl1WJD7Kk45LQPnZ-38" value="&lt;font style=&quot;font-size: 16px;&quot;&gt;Figure:user profile update sequance diagram&lt;/font&gt;" style="text;html=1;align=center;verticalAlign=middle;resizable=0;points=[];autosize=1;strokeColor=none;fillColor=none;" vertex="1" parent="T4NLXl1WJD7Kk45LQPnZ-36">
          <mxGeometry x="155" y="499" width="340" height="30" as="geometry" />
        </mxCell>
      </root>
    </mxGraphModel>
  </diagram>
</mxfile>
